<svg viewBox="0 0 48 56" xmlns="http://www.w3.org/2000/svg">
  <path fill="#ffffff" d="M39.2,29.7c0,2.4,0.7,4.8,2.1,6.8c1.4,2,3.3,3.6,5.6,4.5c-0.9,2.8-2.3,5.5-4,8c-2.4,3.4-4.9,6.8-8.8,6.9
  c-3.9,0.1-5.1-2.2-9.5-2.2s-5.8,2.2-9.5,2.3s-6.7-3.7-9.1-7.1c-5-6.9-8.8-19.6-3.7-28.2c1.2-2.1,2.9-3.8,5-5c2.1-1.2,4.5-1.9,6.9-2
  c3.7-0.1,7.2,2.4,9.5,2.4s6.6-3,11.1-2.6c2.1,0.1,4.1,0.6,6,1.6c1.8,1,3.4,2.3,4.6,4C45.2,19.3,39.2,22.7,39.2,29.7L39.2,29.7z
  M32,8.9c2.2-2.5,3.3-5.7,3-8.9c-3.3,0.3-6.4,1.8-8.5,4.2c-1.9,2.1-3.5,5.4-3.1,8.7C26.6,13.1,29.9,11.3,32,8.9"/>
</svg>
