<svg width="31" height="27" viewBox="0 0 31 27" fill="#F25B26" xmlns="http://www.w3.org/2000/svg">
  <path d="M17.6,13.5L28.6,2.6c0.1-0.1,0.3-0.3,0.3-0.5S29,1.7,29,1.5c0-0.2,0-0.4-0.1-0.6c-0.1-0.2-0.2-0.4-0.3-0.5
  C28.3,0.2,27.9,0,27.5,0c-0.4,0-0.8,0.2-1.1,0.4L15.5,11.4L4.6,0.4C4.4,0.3,4.3,0.2,4.1,0.1C3.9,0,3.7,0,3.5,0C3.3,0,3.1,0,2.9,0.1
  C2.8,0.2,2.6,0.3,2.4,0.4C2.2,0.7,2,1.1,2,1.5c0,0.4,0.2,0.8,0.4,1.1l10.9,10.9L2.4,24.4c-0.1,0.1-0.3,0.3-0.3,0.5
  C2,25.1,2,25.3,2,25.5c0,0.2,0,0.4,0.1,0.6c0.1,0.2,0.2,0.4,0.3,0.5C2.7,26.8,3.1,27,3.5,27c0.4,0,0.8-0.2,1.1-0.4l10.9-10.9
  l10.9,10.9c0.3,0.3,0.7,0.4,1.1,0.4c0.3,0,0.6-0.1,0.8-0.3c0.2-0.2,0.4-0.4,0.6-0.7c0.1-0.3,0.1-0.6,0.1-0.9
  c-0.1-0.3-0.2-0.6-0.4-0.8L17.6,13.5z"/>
</svg>
