<svg xmlns="http://www.w3.org/2000/svg">

    <symbol viewBox="0 0 18 14" fill="currentColor" id="twitter">
      <path d="M11.5641 0.168904C12.2458 -0.0461515 12.9837 -0.0560928 13.6719 0.140507C14.3602 0.337107 14.9633 0.730138 15.3947 1.26319C16.1053 1.05385 16.8055 0.815959 17.5263 0.606617C17.5164 0.925848 17.4299 1.23907 17.2732 1.52372C17.1165 1.80837 16.8935 2.05738 16.6201 2.2528C16.8726 2.27877 17.1281 2.25112 17.3673 2.17197C17.6064 2.09281 17.8228 1.96424 18 1.79606C17.901 2.20987 17.6999 2.59695 17.4123 2.92708C17.1247 3.2572 16.7585 3.52144 16.3421 3.69916C16.095 9.96988 12.9748 14.1662 5.65332 13.9949H5.14874C4.70595 13.9949 0.731121 13.5667 0 12.2441C1.75201 12.4899 3.53888 12.0976 4.98398 11.1498C3.95423 10.8643 2.13158 10.7026 1.82265 8.40934C2.2108 8.54337 2.6321 8.57306 3.03776 8.49498C1.76087 7.70519 0.339817 7.0391 0.422197 4.99327C0.819634 5.29882 1.3269 5.45507 1.84325 5.43098C1.10183 5.20261 -0.24714 2.30989 0.895881 0.825474C2.82151 2.54778 4.86041 4.17493 8.48512 4.3367C8.71167 2.20522 9.68993 0.777896 11.5641 0.168904Z"/>
    </symbol>

    <symbol viewBox="0 0 9 18" fill="currentColor" id="facebook">
      <path d="M6.50865 3.19324H9V0H6.02076C2.76125 0.171067 1.59862 2.27138 2.07612 5.81626H0V9.15206H2.07612V18H6.02076V9.15206H8.97924V5.81626H6.01038C5.98962 4.81837 5.96886 3.52587 6.50865 3.19324Z"/>
    </symbol>

    <symbol viewBox="0 0 20 13" fill="currentColor" id="youtube">
      <path d="M6.83,12.81a1.27,1.27,0,0,1-1.28,0,1.1,1.1,0,0,1-.44-.46,1,1,0,0,1-.09-.6V1.22a1,1,0,0,1,.09-.6A1.1,1.1,0,0,1,5.55.16a1.27,1.27,0,0,1,1.28,0l12.4,5.5c1,.45,1,1.17,0,1.61Z"/>
    </symbol>

    <symbol viewBox="0 0 27 34" fill="currentColor" id="htmlacademy">
      <path d="M13.6426 0.0157537L13.5 0L0 1.40733V26.0129L13.5 34L27 26.0129V1.40733L13.6426 0.0157537ZM25.2344 25.0151L13.5 31.9573L1.76561 25.0151V14.9293L13.4507 21.8451L13.4701 23.0984L5.45351 18.3548L5.44295 19.5801L13.4894 24.3885L13.5088 25.675L5.46408 20.9174L5.45351 22.1427L13.5 26.9511L21.6239 22.1182V20.8929V16.909L25.2432 14.7595L25.2344 25.0151ZM25.2344 13.4519L22.0147 15.3319L20.5325 16.2071L13.4666 12.0201L13.456 13.2454L19.4957 16.818L19.4429 16.8495L19.3126 16.9247L18.4536 17.4166L13.4666 14.4689L13.456 15.6942L17.3921 18.0222L16.4591 18.6314L16.438 18.6436L13.4666 16.902L13.456 18.1273L15.4029 19.2615L13.4155 20.4483L1.7973 13.5762L13.4349 6.61831L25.2344 13.4519ZM25.2344 12.2266L13.4401 5.31075L1.76561 12.2196V2.9897L13.5 1.76442L25.2344 2.9897V12.2266Z"/>
    </symbol>

    <symbol viewBox="0 0 22 41" fill="currentColor" id="left-arrow">
      <path d="M2.0413 20.5035L21.7483 1.4144C21.8281 1.3379 21.8914 1.24683 21.9346 1.14646C21.9778 1.04608 22 0.938398 22 0.829635C22 0.720871 21.9778 0.613187 21.9346 0.512814C21.8914 0.41244 21.8281 0.321369 21.7483 0.24487C21.6686 0.167255 21.5738 0.105671 21.4694 0.0636507C21.365 0.0216304 21.2532 0 21.1401 0C21.0271 0 20.9153 0.0216304 20.8109 0.0636507C20.7065 0.105671 20.6117 0.167255 20.532 0.24487L0.252535 19.9088C0.17249 19.9862 0.108978 20.0781 0.0656429 20.1793C0.0223074 20.2805 0 20.389 0 20.4985C0 20.6081 0.0223074 20.7166 0.0656429 20.8178C0.108978 20.919 0.17249 21.0109 0.252535 21.0883L20.532 40.7621C20.6967 40.9157 20.9167 41.001 21.1453 41C21.3139 40.9985 21.4783 40.9488 21.6181 40.8572C21.7578 40.7656 21.8666 40.6362 21.9309 40.485C21.9952 40.3339 22.0122 40.1677 21.9797 40.0072C21.9473 39.8467 21.8668 39.6991 21.7483 39.5827L2.0413 20.5035Z"/>
    </symbol>

    <symbol viewBox="0 0 22 41" fill="currentColor" id="right-arrow">
      <path d="M19.9587 20.4965L0.251671 39.5856C0.171938 39.6621 0.108643 39.7532 0.065443 39.8535C0.0222435 39.9539 0 40.0616 0 40.1704C0 40.2791 0.0222435 40.3868 0.065443 40.4872C0.108643 40.5876 0.171938 40.6786 0.251671 40.7551C0.33144 40.8327 0.426224 40.8943 0.530588 40.9363C0.634953 40.9784 0.746847 41 0.859852 41C0.972857 41 1.08475 40.9784 1.18911 40.9363C1.29348 40.8943 1.38826 40.8327 1.46803 40.7551L21.7475 21.0912C21.8275 21.0138 21.891 20.9219 21.9344 20.8207C21.9777 20.7195 22 20.611 22 20.5015C22 20.3919 21.9777 20.2834 21.9344 20.1822C21.891 20.081 21.8275 19.9891 21.7475 19.9117L1.46803 0.237877C1.30326 0.0842934 1.08329 -0.00102615 0.85474 7.62939e-06C0.6861 0.00154114 0.52166 0.0511971 0.381939 0.14278C0.24222 0.234364 0.133411 0.363811 0.069088 0.51498C0.00476646 0.666149 -0.0122204 0.83234 0.0202503 0.992809C0.052721 1.15328 0.133209 1.30093 0.251671 1.41732L19.9587 20.4965Z"/>
    </symbol>

    <symbol viewBox="0 0 13 12" fill="currentColor" id="like">
      <path d="M6.46867 12C6.3589 12.0014 6.25012 11.9798 6.14988 11.9367C6.04963 11.8935 5.96033 11.8298 5.88815 11.75C1.95926 7.42 1.03665 6.44 0.860416 6.17C0.307088 5.49497 0.00416162 4.66056 0 3.8C0.00441359 3.07425 0.223059 2.36473 0.63034 1.7545C1.03762 1.14428 1.61668 0.658598 2.29973 0.354328C2.98278 0.0500576 3.74155 -0.0602132 4.48721 0.036425C5.23287 0.133063 5.93456 0.432611 6.51014 0.9C7.22774 0.319491 8.13412 0.00090711 9.07066 0C10.1136 0.00264761 11.1129 0.404172 11.8494 1.11652C12.5859 1.82888 12.9995 2.79391 12.9995 3.8C13.014 4.67715 12.6845 5.5272 12.0769 6.18L7.03883 11.74C6.9678 11.8185 6.88016 11.8814 6.78182 11.9246C6.68348 11.9677 6.5767 11.99 6.46867 11.99V12ZM2.07329 5.28C2.29099 5.54 4.63381 8.12 6.46867 10.14L10.947 5.2C11.3073 4.81798 11.5005 4.3163 11.486 3.8C11.486 3.18205 11.2316 2.5894 10.7786 2.15244C10.3256 1.71548 9.71126 1.47 9.07066 1.47C8.69007 1.47297 8.31512 1.55909 7.97398 1.7219C7.63285 1.8847 7.33439 2.11996 7.10103 2.41C7.02566 2.49603 6.9321 2.56553 6.82661 2.61382C6.72113 2.66211 6.60615 2.68809 6.48941 2.69C6.37337 2.68847 6.25936 2.6605 6.15667 2.60836C6.05398 2.55622 5.96552 2.4814 5.89852 2.39C5.66784 2.10104 5.37087 1.86758 5.03093 1.70796C4.69099 1.54833 4.31732 1.46688 3.93926 1.47C3.48505 1.47534 3.04153 1.6036 2.65919 1.84016C2.27684 2.07673 1.97103 2.41211 1.77658 2.8081C1.58213 3.2041 1.50684 3.64481 1.5593 4.08006C1.61176 4.51531 1.78985 4.9276 2.07329 5.27V5.28Z"/>
    </symbol>

    <symbol viewBox="0 0 48 48" fill="currentColor" id="crop">
      <path d="M34,30h4V14a4,4,0,0,0-4-4H18v4H34ZM14,34V2H10v8H2v4h8V34a4,4,0,0,0,4,4H34v8h4V38h8V34Z"/>
    </symbol>

    <symbol viewBox="0 0 48 48" fill="currentColor" id="fill">
      <path d="M33.12,20.88,15.24,3,12.41,5.83l4.76,4.76L6.88,20.88a3,3,0,0,0,0,4.24l11,11a3,3,0,0,0,4.24,0l11-11a3,3,0,0,0,0-4.24ZM10.41,23,20,13.42,29.59,23ZM38,26s-4,4.33-4,7a4,4,0,0,0,8,0C42,30.33,38,26,38,26Z"/>
      <path d="M48,43H0v3H48Z"/>
    </symbol>

    <symbol viewBox="0 0 48 48" fill="currentColor" id="contrast">
      <path d="M24,12a12,12,0,1,1-8.49,3.51A12,12,0,0,1,24,12Zm0-4a16,16,0,1,0,11.31,4.69A16,16,0,0,0,24,8Z"/>
      <path d="M24,32.29a8.52,8.52,0,0,0,0-17"/>
    </symbol>

  </svg>
